# xmcd
#
# Track frame offsets: 
#        150
#        11044
#        20458
#        29576
#        41133
#        52142
#        61260
#        73412
#        83740
#        95537
#        106606
#        117507
#        126712
#        136998
#        147057
#        157215
#
# Disc length: 2234 seconds
#
# Revision: 0
# Processed by: cddbd v1.5.2PL0 Copyright (c) Steve Scherf et al.
# Submitted via: ExactAudioCopyFreeDBPlugin 1.0
#
DISCID=ef08b810
DTITLE=Buck Owens - Four Classic Albums CD-1
DYEAR=1900
DGENRE=Country
TTITLE0=Above And Beyond
TTITLE1=Second Fiddle
TTITLE2=Tired Of Livin'
TTITLE3=I Gotta Right To Konw
TTITLE4=Excuse Me
TTITLE5=I'll Give My Heart To You
TTITLE6=Under Your Spell Again
TTITLE7=My Everlasting Love
TTITLE8=Take Me Back Again
TTITLE9=Til These Dreams Come True
TTITLE10=Walk The Floors
TTITLE11=I'll Take A Chance On Loving You
TTITLE12=Hot Dog
TTITLE13=Rhythm And Booze
TTITLE14=There Goes My Love
TTITLE15=Sweethearts In Heaven
EXTD=
EXTT0=
EXTT1=
EXTT2=
EXTT3=
EXTT4=
EXTT5=
EXTT6=
EXTT7=
EXTT8=
EXTT9=
EXTT10=
EXTT11=
EXTT12=
EXTT13=
EXTT14=
EXTT15=
PLAYORDER=
